<svg version="1.1" xmlns="http://www.w3.org/2000/svg" viewBox="-245.75999755859374 -3226.624108886718 5760.00009765625 4587.520141601562"><desc>Created with Snap</desc><defs></defs><g><g transform="matrix(9.5228,0,0,9.5228,1850.0279,-2919.409)">
  <title>icon</title>
  <g id="gSlhp6ghbvbre">
    <g>
      <path d="M157.13643,175.68909H27.45022a21.96018,21.96018,0,1,1,0-43.92035H157.13643A47.118,47.118,0,0,0,157.13643,175.68909Z" fill="#fc8063"></path>
      <rect x="26.08974" y="140.40767" width="127.07309" height="26.51204" fill="#fff"></rect>
      <path d="M0,153.72892a27.48167,27.48167,0,0,0,27.45022,27.45022H161.9563a2.74482,2.74482,0,0,0,2.284-4.26765,41.67593,41.67593,0,0,1,0-46.36514,2.74483,2.74483,0,0,0-2.284-4.26766H25.7949S-.06836,125.36726.12465,152.58158m157.01178,23.10751H27.45022a21.96018,21.96018,0,1,1,0-43.92035H157.13643A47.118,47.118,0,0,0,157.13643,175.68909Z" fill="#00143d"></path>
      <path d="M30.0583,145.68611H156.36161v-5.76363H30.13075c-8.89331,0-16.12766,6.19312-16.12766,13.80644s7.23435,13.80644,16.12766,13.80644H156.36161v-5.76364H30.0583Z" fill="#00143d"></path>
      <polygon points="44.727 150.344 32 177.555 47.469 177.555 44.727 150.344" fill="#00143d"></polygon>
      <path d="M126.173,113.239c0,12.99772-18.33694,26.6835-40.95673,26.6835S44.25957,126.2367,44.25957,113.239s18.33694-23.5346,40.95672-23.5346S126.173,100.24126,126.173,113.239Z" fill="#a16b4e"></path>
      <polygon points="84.89 122.495 56.143 134.369 47.65 124.569 75.09 101.703 84.89 122.495" fill="#00143d"></polygon>
      <path d="M126.173,113.239c0,12.99772-18.33694,26.6835-40.95673,26.6835S44.25957,126.2367,44.25957,113.239s18.33694-23.5346,40.95672-23.5346S126.173,100.24126,126.173,113.239Z" fill="none" stroke="#00143d" stroke-miterlimit="10" stroke-width="8.13035"></path>
      <path d="M31.57781,103.69115c-3.04441,5.71719-4.06889,22.06215,4.29527,24.14311s22.9498-10.89017,25.99421-16.60737-1.2684-12.03875-9.63256-14.11971S34.6219,97.974,31.57781,103.69115Z" fill="#7d4e3e"></path>
      <polygon points="30.663 119.016 50.263 103.989 36.216 97.456 30.336 104.316 30.663 119.016" fill="#fff"></polygon>
      <path d="M31.57781,103.69115c-3.04441,5.71719-4.06889,22.06215,4.29527,24.14311s22.9498-10.89017,25.99421-16.60737-1.2684-12.03875-9.63256-14.11971S34.6219,97.974,31.57781,103.69115Z" fill="none" stroke="#00143d" stroke-miterlimit="10" stroke-width="8.13035"></path>
      <path d="M138.85477,103.69115c3.04442,5.71719,4.06889,22.06215-4.29527,24.14311s-22.94979-10.89017-25.99422-16.60737,1.2684-12.03875,9.63256-14.11971S135.81036,97.974,138.85477,103.69115Z" fill="#7d4e3e"></path>
      <path d="M138.85477,103.69115c3.04442,5.71719,4.06889,22.06215-4.29527,24.14311s-22.94979-10.89017-25.99422-16.60737,1.2684-12.03875,9.63256-14.11971S135.81036,97.974,138.85477,103.69115Z" fill="none" stroke="#00143d" stroke-miterlimit="10" stroke-width="8.13035"></path>
      <path d="M144.66951,76.87593l-2.72222-17.30962c0-22.4512-25.31264-40.65149-56.53732-40.65149S28.87264,37.11511,28.87264,59.56631L26.08974,75.2426s16.98812,31.59076,52.60174,35.24647l6.19772,5.69567,6.23615-5.731A73.12973,73.12973,0,0,0,144.66951,76.87593Z" fill="#a16b4e"></path>
      <polygon points="36.216 90.596 55.163 40.289 31.316 46.169 24.456 73.609 36.216 90.596" fill="#fff"></polygon>
      <polygon points="108.736 21.669 85.41 50.089 63.003 23.629 108.736 21.669" fill="#00143d"></polygon>
      <polygon points="38.938 52.812 28.049 59.566 33.711 40.616 44.382 42.576 38.938 52.812" fill="#00143d"></polygon>
      <path d="M84.45407,82.86481l-10.01776,7.84,10.46154,25.472,22.20507-12.40537s22.64884-1.30666,36.151-25.26217l-7.40443-39.63548L94.03627,44.536Z" fill="#fad97e"></path>
      <polygon points="131.058 52.812 141.947 59.566 136.285 40.616 125.614 42.576 131.058 52.812" fill="#00143d"></polygon>
      <path d="M125.49424,30.89813a123.59236,123.59236,0,0,0-18.67163-5.33087,119.254,119.254,0,0,0-18.53418-2.16412,127.20913,127.20913,0,0,0-18.68482.68676,154.291,154.291,0,0,0-19.14538,3.52155A43.97649,43.97649,0,0,1,68.10679,17.2818a60.02665,60.02665,0,0,1,20.52-2.73468,59.07284,59.07284,0,0,1,20.26147,4.38769C115.25571,21.62378,121.22153,25.52936,125.49424,30.89813Z" fill="#00143d"></path>
      <circle cx="114.7856" cy="54.78239" r="16.92616" fill="#fad97e"></circle>
      <path d="M129.39658,46.23212a14.88285,14.88285,0,0,1,3.54676,7.26483,17.49457,17.49457,0,0,1-.59827,8.46625,18.14964,18.14964,0,0,1-12.44995,11.66351,18.6928,18.6928,0,0,1-8.84937.1944,17.802,17.802,0,0,1-7.78332-3.97638,16.00809,16.00809,0,0,1-5.403-15.06232,18.27611,18.27611,0,0,0,7.90345,11.7981,15.8227,15.8227,0,0,0,12.76672,1.99987A15.9749,15.9749,0,0,0,128.55271,60.411a18.02146,18.02146,0,0,0,1.843-6.73608A19.49877,19.49877,0,0,0,129.39658,46.23212Z" fill="#00143d"></path>
      <path d="M88.94011,81.98068,96.298,67.79506a8.19268,8.19268,0,0,0-1.47955-9.565l-6.315-6.315a4.37494,4.37494,0,0,0-6.187,0l-6.315,6.315a8.19258,8.19258,0,0,0-1.47956,9.565l7.35789,14.18562A3.9768,3.9768,0,0,0,88.94011,81.98068Z" fill="#fff"></path>
      <path d="M74.65409,65.00706s16.3333,9.36443,11.5422-13.06664c0,0,10.88887,7.84,10.88887,12.63109s-9.14665,18.94663-9.14665,18.94663S82.05852,87.87368,74.65409,65.00706Z" fill="#fc8063"></path>
      <circle cx="112.30963" cy="53.47502" r="7.12098" fill="#00143d"></circle>
      <polygon points="95.833 59.726 113.963 44.318 84.999 51.396 95.833 59.726" fill="#00143d"></polygon>
      <circle cx="55.56468" cy="54.78239" r="16.92616" fill="#fad97e"></circle>
      <path d="M40.95371,46.23212a19.499,19.499,0,0,0-.99914,7.44275,18.02145,18.02145,0,0,0,1.843,6.73608A15.879,15.879,0,0,0,58.353,68.95313a16.16879,16.16879,0,0,0,6.23438-2.37262,18.27613,18.27613,0,0,0,7.90344-11.7981,16.00806,16.00806,0,0,1-5.403,15.06232,17.80207,17.80207,0,0,1-7.78333,3.97638,18.69276,18.69276,0,0,1-8.84936-.1944,18.14962,18.14962,0,0,1-12.45-11.66351A17.49433,17.49433,0,0,1,37.407,53.497,14.88283,14.88283,0,0,1,40.95371,46.23212Z" fill="#00143d"></path>
      <circle cx="59.34802" cy="53.47502" r="7.12098" fill="#00143d"></circle>
      <polygon points="74.517 59.726 56.387 44.318 85.352 51.396 74.517 59.726" fill="#00143d"></polygon>
      <path d="M149.83868,75.545c-.24933-2.07144-.49745-4.14188-.79342-6.2034-.37976-2.05881-.72528-4.11777-1.18317-6.1583-.52147-2.03528-.9415-4.0778-1.60887-6.07678l-.94994-2.99841c-.34148-.99191-.74252-1.97007-1.11065-2.9512a59.99219,59.99219,0,0,0-5.72006-11.213c-.5913-.87239-1.20969-1.72379-1.82637-2.56753-.6624-.82248-1.30007-1.64524-2.02323-2.41229a22.954,22.954,0,0,0-4.65343-4.14812,50.11412,50.11412,0,0,1,4.9662,10.87994,94.79,94.79,0,0,1,3.00557,11.34824c.83843,3.80359,1.33375,7.6846,1.86132,11.53667l.59683,5.819c.08067,1.51111.19183,3.01627.307,4.52044-.1208.21395-.24543.43087-.36686.63206l-1.0068,1.65843c-.6975,1.10363-1.43108,2.19776-2.21123,3.26354a70.74924,70.74924,0,0,1-4.9852,6.1851,75.24336,75.24336,0,0,1-11.79812,10.73277,72.80082,72.80082,0,0,1-6.15526,4.07723c-3.46778-.90174,6.13683-14.39429,2.49934-14.39429L97.47931,104.65729l-.013-.01475L84.89785,116.1768,72.32943,104.64254l-.01305.01475-19.203-17.58212c-3.63749,0,5.96711,13.49255,2.49934,14.39429a72.80082,72.80082,0,0,1-6.15526-4.07723A75.24336,75.24336,0,0,1,37.6593,86.65946a70.74739,70.74739,0,0,1-4.9852-6.1851c-.78016-1.06578-1.51374-2.15991-2.21124-3.26354l-1.00679-1.65843c-.12144-.20119-.24606-.41811-.36686-.63206.1152-1.50417.22635-3.00933.307-4.52044l.59683-5.819c.52757-3.85207,1.02289-7.73308,1.86132-11.53667A94.78993,94.78993,0,0,1,34.86,41.696,50.11369,50.11369,0,0,1,39.82616,30.816a22.954,22.954,0,0,0-4.65343,4.14812c-.72316.76705-1.36083,1.58981-2.02324,2.41229-.61668.84374-1.23506,1.69514-1.82636,2.56753a59.99219,59.99219,0,0,0-5.72006,11.213c-.36814.98113-.76917,1.95929-1.11065,2.9512l-.94994,2.99841c-.66737,1.999-1.0874,4.0415-1.60887,6.07678-.45789,2.04053-.80341,4.09949-1.18318,6.1583-.296,2.06152-.54409,4.132-.79341,6.2034l-.12938,1.07428.525,1.15808c.226.49865.37807.81043.56593,1.18629L21.464,80.0181c.36389.69374.7574,1.358,1.15482,2.01657.80057,1.31191,1.63326,2.59192,2.51316,3.83379a65.555,65.555,0,0,0,5.79293,7.01822,62.53353,62.53353,0,0,0,14.23379,11.16747,58.8082,58.8082,0,0,0,16.70875,6.411A57.3925,57.3925,0,0,0,72.466,111.68543l.10847.0621,1.04614.37643,11.269,10.35563v.015l.00823-.00765.00822.00765v-.015L96.17513,112.124l1.04614-.37643.10846-.0621a57.3926,57.3926,0,0,0,10.59857-1.22032,58.808,58.808,0,0,0,16.70874-6.411,62.53353,62.53353,0,0,0,14.23379-11.16747,65.55627,65.55627,0,0,0,5.79294-7.01822c.8799-1.24187,1.71259-2.52188,2.51316-3.83379.39741-.65858.79093-1.32283,1.15481-2.01657l.54537-1.05443c.18786-.37586.33992-.68764.56592-1.18629l.525-1.15808Z" fill="#00143d"></path>
      <path d="M85.86777,51.396s-25.01913-9.25871-38.50535-6.77351-16.92031-16.1503-8.03514-21.59059c7.89793-4.83582-22.98756-20.30467-7.46456-18.5586A30.77242,30.77242,0,0,1,45.37,9.469c11.75915,7.78106,35.38187,23.74256,40.28187,32.127" fill="#684136"></path>
      <path d="M85.32517,51.94043c-6.76892-1.56464-13.49365-3.04834-20.21826-3.93152a79.27677,79.27677,0,0,0-9.95544-.78821,37.66191,37.66191,0,0,0-4.75354.25067,22.28132,22.28132,0,0,0-2.20765.39527l-.6831.13537-.79077.14447c-.52808.09186-1.08875.10932-1.635.15815a13.70345,13.70345,0,0,1-6.77381-1.43714A13.84589,13.84589,0,0,1,33.1251,42.1499a16.76168,16.76168,0,0,1-2.49841-6.19928,18.336,18.336,0,0,1-.04651-6.63031,15.40255,15.40255,0,0,1,2.71106-6.45367,14.27855,14.27855,0,0,1,2.5896-2.69824l.77319-.55231.39209-.26911c.0271-.024.00671-.0072-.00867-.001a1.68069,1.68069,0,0,0-.52807.64789,2.2243,2.2243,0,0,0-.23487,1.14184c.01953.21521.04688.20075-.00818.098a6.864,6.864,0,0,0-.83752-1.21466,33.75269,33.75269,0,0,0-3.181-3.22235l-3.80042-3.42364c-.66149-.60254-1.33361-1.22211-2.03161-1.91773-.35-.35077-.7052-.7171-1.0791-1.14056a12.67476,12.67476,0,0,1-1.208-1.57569,7.372,7.372,0,0,1-.70728-1.40124,5.8158,5.8158,0,0,1-.3125-1.21851,5.27216,5.27216,0,0,1,.075-1.90777,5.10025,5.10025,0,0,1,1.01746-2.08637A5.34562,5.34562,0,0,1,25.58115.93872,6.27114,6.27114,0,0,1,27.49338.202,10.25553,10.25553,0,0,1,29.70713,0c.59912.00549,1.13574.0412,1.65039.08807a33.186,33.186,0,0,1,5.8346,1.09272,34.97964,34.97964,0,0,1,10.46557,5.0531c2.80982,2.00488,5.62586,4.02673,8.39636,6.11615,5.54944,4.16687,11.01184,8.4873,16.19751,13.17492,2.56519,2.37586,5.1139,4.77954,7.4751,7.38874,1.17188,1.31219,2.31336,2.65564,3.36682,4.07232a18.214,18.214,0,0,1,2.55835,4.61,20.24863,20.24863,0,0,0-3.56946-3.67432c-1.29113-1.10992-2.65332-2.13989-4.04126-3.13385q-4.1499-2.99634-8.50073-5.73028C63.78391,25.359,57.93906,21.7829,52.08384,18.20892l-8.79736-5.36963A28.29375,28.29375,0,0,0,35.01389,9.371a25.2329,25.2329,0,0,0-4.33764-.67523c-.34424-.021-.66871-.02911-.93128-.02228a1.09958,1.09958,0,0,0-.35547.03223,2.10336,2.10336,0,0,0,.70484-.29169,3.32927,3.32927,0,0,0,.88818-.77209,3.70564,3.70564,0,0,0,.7395-1.50983,3.52856,3.52856,0,0,0,.05823-1.26581,2.81556,2.81556,0,0,0-.14551-.59576,2.5656,2.5656,0,0,0-.113-.25641,5.11657,5.11657,0,0,0,.38.46027c.19849.22064.44458.47186.70593.728.52759.51581,1.12671,1.06025,1.745,1.61139,1.239,1.11078,2.57812,2.23658,3.89844,3.47663a41.65854,41.65854,0,0,1,4.016,4.18792,14.88861,14.88861,0,0,1,1.97912,3.10425,8.36647,8.36647,0,0,1,.72852,2.56421,6.65939,6.65939,0,0,1-.6261,3.66022,6.911,6.911,0,0,1-2.21924,2.56683l-.6853.45612-.2898.18231a5.67424,5.67424,0,0,0-1.01086.98877,7.77372,7.77372,0,0,0-1.36719,2.95013,10.30031,10.30031,0,0,0,.92236,7.07312,6.23944,6.23944,0,0,0,5.3357,3.35981c.31274-.00928.61816.02673.94311-.00257l.48926-.03393.24634-.01453.34949-.0354a28.92218,28.92218,0,0,1,2.925-.19586,36.086,36.086,0,0,1,5.57629.35827A66.00989,66.00989,0,0,1,66.029,43.80273,103.55222,103.55222,0,0,1,85.32517,51.94043Z" fill="#00143d"></path>
      <path d="M84.99851,51.396s25.01913-9.25871,38.50535-6.77351,16.92031-16.1503,8.03514-21.59059c-7.89793-4.83582,22.98756-20.30467,7.46456-18.5586A30.77242,30.77242,0,0,0,125.4963,9.469C113.73715,17.25007,86.49865,36.0073,84.45407,44.10043" fill="#684136"></path>
      <path d="M84.99851,51.396a109.19312,109.19312,0,0,1,19.46131-7.71,71.21065,71.21065,0,0,1,10.4591-2.2323,39.11248,39.11248,0,0,1,5.54065-.36091c.47131-.00628.95166.014,1.43506.04212q.71961.02434,1.46069.11432l.73816.07947.49768.03118a6.19722,6.19722,0,0,0,.95642.02576,6.32759,6.32759,0,0,0,3.23877-.85968,6.51092,6.51092,0,0,0,2.2533-2.274,10.24182,10.24182,0,0,0,1.10449-7.03668,7.9586,7.9586,0,0,0-1.28369-3.03735,5.16041,5.16041,0,0,0-.99036-1.03143,5.261,5.261,0,0,0-.5603-.3935l-.45715-.29724c-.19019-.13123-.38233-.27441-.57825-.43829a7.03975,7.03975,0,0,1-1.157-1.225,6.542,6.542,0,0,1-1.26148-3.61652,7.56566,7.56566,0,0,1,.496-2.94323,13.11168,13.11168,0,0,1,1.94555-3.36939,37.47319,37.47319,0,0,1,4.02-4.29413c1.32361-1.25537,2.6626-2.39233,3.91748-3.50775.62634-.55511,1.23438-1.10193,1.78369-1.62707a13.42525,13.42525,0,0,0,1.2721-1.347c.04834-.06225.07092-.10241.04394-.053a2.315,2.315,0,0,0-.22448.68024,3.46335,3.46335,0,0,0-.01966,1.12616,3.69926,3.69926,0,0,0,.60791,1.556A3.21549,3.21549,0,0,0,141.207,8.62634c.4729.1532.30432.05384.11914.05829a7.352,7.352,0,0,0-.83594-.00415,24.386,24.386,0,0,0-4.31848.61621,27.77514,27.77514,0,0,0-8.29138,3.364L119.16343,18.041c-5.81751,3.62269-11.62158,7.27112-17.3573,11.01526q-4.33044,2.77323-8.48682,5.77655c-1.39221.9939-2.7605,2.02076-4.06042,3.12348A19.9539,19.9539,0,0,0,85.65183,41.596,17.9684,17.9684,0,0,1,88.248,37.00629c1.06165-1.409,2.20337-2.74933,3.3739-4.05963,2.35914-2.60407,4.88428-5.02784,7.431-7.42035,5.14428-4.72589,10.54992-9.115,16.07263-13.33258,2.76721-2.12464,5.53894-4.14679,8.4209-6.19513a34.66223,34.66223,0,0,1,10.5487-4.93427A32.80751,32.80751,0,0,1,139.97324.04974,16.11673,16.11673,0,0,1,141.7208.00842a8.10625,8.10625,0,0,1,2.657.49036A5.34737,5.34737,0,0,1,146.92124,2.469a5.11032,5.11032,0,0,1,.83753,2.1532,5.30827,5.30827,0,0,1-.04712,1.7685,6.34947,6.34947,0,0,1-.69544,1.87811,9.31913,9.31913,0,0,1-.66138,1.029,20.68811,20.68811,0,0,1-2.21435,2.46344c-.68994.67255-1.35877,1.28394-2.016,1.87872L138.3502,17.043a29.61163,29.61163,0,0,0-3.09082,3.19849,5.37294,5.37294,0,0,0-.68921,1.05731,1.71174,1.71174,0,0,0,.02539-.41834,2.29811,2.29811,0,0,0-.43775-1.209,1.49468,1.49468,0,0,0-.27368-.28613.50641.50641,0,0,0-.06579-.04493l-.01111-.00537-.00464-.00006.0968.06586a14.089,14.089,0,0,1,3.99622,3.9165,15.61163,15.61163,0,0,1,2.46911,6.50714,17.6255,17.6255,0,0,1-2.917,12.75757,13.33207,13.33207,0,0,1-12.165,5.68445,10.82757,10.82757,0,0,1-1.61536-.20715l-.78247-.14771-.53942-.11682c-.35584-.08588-.72339-.15655-1.10315-.20953-.37366-.06385-.75122-.12329-1.14161-.15912a43.23222,43.23222,0,0,0-4.79223-.24994,89.19351,89.19351,0,0,0-9.99866.69446C98.56126,48.65613,91.80418,49.995,84.99851,51.396Z" fill="#00143d"></path>
      <path d="M88.94011,81.98068,96.298,67.79506a8.19268,8.19268,0,0,0-1.47955-9.565l-6.315-6.315a4.37494,4.37494,0,0,0-6.187,0l-6.315,6.315a8.19258,8.19258,0,0,0-1.47956,9.565l7.35789,14.18562A3.9768,3.9768,0,0,0,88.94011,81.98068Z" fill="none" stroke="#00143d" stroke-miterlimit="10" stroke-width="4.64592"></path>
      <polygon points="47.486 47.149 39.32 58.583 38.666 45.516 47.486 47.149" fill="#00143d"></polygon>
      <polygon points="124.181 47.149 132.347 58.583 133.001 45.516 124.181 47.149" fill="#00143d"></polygon>
      <polygon points="75.453 192.479 61.297 180.865 47.577 192.479 47.577 153.279 75.453 153.279 75.453 192.479" fill="#fad97e" stroke="#00143d" stroke-miterlimit="10" stroke-width="5.8074"></polygon>
    </g>
  </g>
<desc>Created with Snap</desc><defs></defs></g><g><g transform="matrix(1.024,0,0,-1.024,0,0)"><path d="M60 465Q60 549 66 596Q72 644 91 668Q110 692 145 697Q180 703 237 703Q269 703 295 703Q321 703 345 702Q370 702 394 701Q419 700 448 699Q472 697 485 693Q498 690 505 684Q512 678 513 670Q515 662 515 652Q515 634 502 622Q490 610 449 608Q424 607 400 606Q377 605 347 604Q318 604 281 603Q244 603 192 603Q174 603 167 590Q160 578 160 559Q160 544 160 529Q161 514 161 496Q162 478 162 455Q163 433 163 403Q200 403 227 402Q255 402 275 401Q296 401 312 400Q328 399 343 398Q384 396 396 384Q409 372 409 354Q409 344 407 336Q406 328 399 322Q392 316 379 312Q366 308 342 306Q326 305 311 304Q297 304 277 303Q258 303 231 303Q204 303 163 303Q162 243 162 180Q163 118 159 52Q157 13 145 4Q134 -4 111 -4Q89 -4 78 5Q67 15 65 51Q63 83 62 121Q62 160 61 209Q60 259 60 321Q60 384 60 465ZM607 58Q606 94 605 142Q604 190 603 246Q603 302 602 364Q602 426 602 491Q602 562 603 613Q604 664 608 697Q613 730 623 745Q633 761 651 761Q668 761 681 750Q694 739 696 699Q700 627 701 549Q702 472 702 397Q702 352 702 310Q702 269 701 228Q700 188 699 146Q698 104 696 59Q695 35 691 22Q688 9 682 2Q676 -5 668 -7Q661 -8 651 -8Q633 -8 621 4Q609 17 607 58ZM1056 184Q1021 184 982 189Q944 195 899 213Q908 152 949 121Q991 90 1069 90Q1097 90 1119 93Q1142 97 1159 101Q1176 106 1189 109Q1202 113 1213 113Q1227 113 1240 104Q1253 96 1253 76Q1253 51 1232 35Q1212 19 1182 9Q1153 0 1120 -4Q1087 -7 1062 -7Q1003 -7 953 9Q904 25 868 57Q832 90 812 138Q792 186 792 250Q792 312 811 360Q831 408 865 441Q899 474 945 491Q992 508 1046 508Q1088 508 1127 497Q1167 486 1197 464Q1228 442 1246 408Q1265 375 1265 330Q1265 290 1250 262Q1235 234 1207 217Q1180 200 1141 192Q1103 184 1056 184ZM1049 416Q1022 416 997 409Q972 403 951 388Q931 374 917 350Q903 327 898 292Q936 275 972 268Q1008 262 1048 262Q1107 262 1135 276Q1164 291 1164 329Q1164 364 1137 390Q1111 416 1049 416ZM1551 174Q1506 127 1474 93Q1443 60 1421 38Q1399 17 1384 7Q1370 -3 1358 -3Q1344 -3 1330 9Q1317 21 1317 35Q1317 47 1334 71Q1351 96 1376 126Q1401 156 1430 188Q1459 221 1483 250Q1451 287 1422 322Q1394 357 1373 387Q1352 417 1339 440Q1327 463 1327 476Q1327 489 1340 498Q1353 508 1364 508Q1373 508 1395 488Q1417 469 1444 441Q1472 414 1500 383Q1529 352 1552 328Q1574 352 1601 382Q1629 413 1656 440Q1683 467 1706 486Q1729 505 1742 505Q1753 505 1764 497Q1775 489 1775 476Q1775 463 1762 440Q1750 417 1729 387Q1708 357 1679 322Q1651 287 1619 250Q1644 222 1673 189Q1702 157 1727 126Q1752 96 1768 71Q1785 47 1785 35Q1785 21 1771 9Q1758 -3 1744 -3Q1731 -3 1709 13Q1688 30 1661 55Q1635 81 1606 112Q1578 144 1551 174ZM2175 246L2174 63Q2174 39 2169 26Q2165 13 2158 6Q2152 -1 2143 -3Q2135 -4 2127 -4Q2100 -4 2091 8Q2083 20 2080 62Q2078 84 2077 126Q2076 168 2075 226Q2075 284 2074 354Q2074 424 2074 502Q2074 539 2083 577Q2092 615 2117 646Q2143 677 2188 696Q2234 715 2307 715Q2358 715 2404 704Q2450 693 2485 666Q2520 639 2541 594Q2562 549 2562 482Q2562 412 2539 366Q2516 320 2474 293Q2432 266 2374 255Q2316 244 2247 244Q2230 244 2213 244Q2196 244 2175 246ZM2462 484Q2462 551 2424 585Q2387 619 2300 619Q2267 619 2243 613Q2220 608 2205 594Q2190 581 2182 558Q2175 535 2175 500Q2175 466 2175 422Q2175 379 2176 341Q2199 340 2227 340Q2256 340 2281 340Q2311 340 2343 344Q2376 348 2402 362Q2428 377 2445 405Q2462 434 2462 484ZM3053 -4Q3037 -4 3027 1Q3018 7 3013 16Q3008 25 3006 37Q3004 50 3003 64Q2978 33 2938 12Q2899 -9 2838 -9Q2799 -9 2758 2Q2718 14 2685 42Q2652 71 2631 119Q2610 167 2610 240Q2610 297 2624 347Q2638 397 2666 434Q2695 472 2738 494Q2781 516 2839 516Q2890 516 2930 497Q2970 479 3002 437Q3002 449 3003 461Q3004 474 3008 484Q3013 495 3023 501Q3033 508 3050 508Q3065 508 3078 496Q3091 484 3093 444Q3096 391 3097 349Q3099 307 3099 262Q3099 207 3098 161Q3097 115 3093 63Q3091 40 3087 26Q3084 13 3079 6Q3074 0 3067 -2Q3060 -4 3053 -4ZM2999 250Q2999 302 2983 335Q2968 368 2944 386Q2921 405 2894 412Q2867 419 2844 419Q2808 419 2782 406Q2757 393 2741 370Q2725 348 2717 317Q2710 287 2710 251Q2710 163 2748 121Q2787 79 2853 79Q2892 79 2919 92Q2947 106 2964 129Q2982 152 2990 183Q2999 215 2999 250ZM3325 -144Q3325 -163 3324 -181Q3323 -198 3317 -212Q3312 -226 3301 -235Q3291 -243 3272 -243Q3250 -243 3235 -228Q3221 -212 3219 -173Q3218 -148 3216 -112Q3214 -76 3212 -36Q3211 4 3209 44Q3208 84 3208 118Q3208 235 3224 311Q3241 387 3274 432Q3307 477 3355 495Q3404 513 3468 513Q3519 513 3564 497Q3609 482 3642 449Q3676 417 3696 365Q3716 314 3716 242Q3716 182 3695 136Q3675 90 3639 58Q3603 27 3554 10Q3506 -6 3451 -6Q3404 -6 3366 13Q3329 33 3313 56Q3318 0 3321 -48Q3325 -96 3325 -144ZM3463 413Q3428 413 3402 401Q3377 389 3361 368Q3345 347 3337 318Q3330 289 3330 255Q3330 222 3336 192Q3343 163 3358 141Q3373 119 3398 106Q3423 93 3459 93Q3487 93 3513 100Q3539 108 3559 126Q3580 144 3592 174Q3605 204 3605 249Q3605 295 3592 326Q3580 358 3559 377Q3539 397 3513 405Q3488 413 3463 413ZM4036 184Q4001 184 3962 189Q3924 195 3879 213Q3888 152 3929 121Q3971 90 4049 90Q4077 90 4099 93Q4122 97 4139 101Q4156 106 4169 109Q4182 113 4193 113Q4207 113 4220 104Q4233 96 4233 76Q4233 51 4212 35Q4192 19 4162 9Q4133 0 4100 -4Q4067 -7 4042 -7Q3983 -7 3933 9Q3884 25 3848 57Q3812 90 3792 138Q3772 186 3772 250Q3772 312 3791 360Q3811 408 3845 441Q3879 474 3925 491Q3972 508 4026 508Q4068 508 4107 497Q4147 486 4177 464Q4208 442 4226 408Q4245 375 4245 330Q4245 290 4230 262Q4215 234 4187 217Q4160 200 4121 192Q4083 184 4036 184ZM4029 416Q4002 416 3977 409Q3952 403 3931 388Q3911 374 3897 350Q3883 327 3878 292Q3916 275 3952 268Q3988 262 4028 262Q4087 262 4115 276Q4144 291 4144 329Q4144 364 4117 390Q4091 416 4029 416ZM4345 61Q4341 96 4340 146Q4339 196 4339 267Q4339 337 4339 380Q4340 423 4345 456Q4350 497 4360 509Q4371 521 4388 521Q4400 521 4409 519Q4419 517 4426 510Q4434 504 4438 492Q4442 480 4442 459Q4442 455 4443 451Q4443 447 4443 442Q4444 438 4444 432Q4471 466 4505 490Q4540 514 4584 514Q4643 514 4643 465Q4643 447 4635 435Q4628 423 4614 415Q4601 408 4583 404Q4566 400 4545 396Q4513 390 4485 373Q4457 357 4447 332Q4447 313 4447 304Q4448 295 4448 289Q4449 283 4449 276Q4449 269 4449 254Q4449 203 4447 158Q4445 114 4443 62Q4442 38 4437 25Q4433 12 4426 5Q4420 -2 4412 -4Q4404 -5 4396 -5Q4368 -5 4358 7Q4349 20 4345 61ZM4893 522Q4914 522 4946 518Q4978 515 5007 505Q5036 496 5057 479Q5078 462 5078 436Q5078 421 5069 410Q5061 399 5043 399Q5030 399 5013 403Q4997 407 4977 412Q4958 418 4935 422Q4913 426 4888 426Q4846 426 4819 413Q4793 400 4793 372Q4793 356 4802 345Q4812 334 4828 325Q4845 317 4867 311Q4890 305 4915 299Q4946 291 4976 281Q5007 271 5031 253Q5055 236 5070 209Q5085 183 5085 144Q5085 70 5029 26Q4973 -17 4864 -17Q4840 -17 4807 -14Q4774 -10 4745 -1Q4716 9 4695 26Q4675 44 4675 73Q4675 93 4684 103Q4694 114 4708 114Q4719 114 4731 107Q4743 100 4760 92Q4777 84 4801 77Q4825 70 4860 70Q4873 70 4894 71Q4915 73 4935 80Q4956 87 4970 99Q4985 112 4985 135Q4985 153 4975 165Q4965 178 4948 187Q4931 196 4908 202Q4886 209 4861 216Q4832 224 4802 234Q4773 244 4749 260Q4725 276 4710 300Q4695 325 4695 361Q4695 395 4709 424Q4723 454 4749 476Q4775 498 4811 510Q4848 522 4893 522Z" fill="#343333" style=""></path></g></g><g transform="matrix(0.75,0,0,0.75,1546.3681,1046.016)"><g transform="matrix(1.024,0,0,-1.024,0,0)"><path d="M130 585L130 52L283 52L386 194Q391 201 399 201Q408 201 413 196Q419 191 419 184Q419 178 415 170L342 16Q333 0 314 0L49 0Q25 0 25 26Q25 52 49 52L73 52L73 585L49 585Q25 585 25 611Q25 638 49 638L154 638Q179 638 179 611Q179 585 154 585L130 585ZM504 53L504 429L478 429Q466 429 459 436Q452 444 452 454Q452 480 478 480L528 480Q559 480 560 453L560 52L585 52Q597 52 603 44Q610 36 610 26Q610 0 585 0L479 0Q469 0 461 7Q454 15 454 25Q454 35 461 43Q469 52 479 52L504 53ZM519 635Q539 635 552 622Q566 609 566 590Q566 572 552 559Q539 546 519 546Q500 546 486 559Q473 572 473 590Q473 609 486 622Q499 635 519 635ZM715 18L715 428L686 428Q663 428 663 454Q663 480 686 480L798 480Q808 480 816 472Q824 464 824 454Q824 444 816 436Q808 428 798 428L771 428L771 43Q818 43 867 97Q917 152 948 232Q980 312 980 383Q980 421 970 423Q958 420 951 420Q931 420 915 438Q900 456 900 474Q900 516 941 516Q976 516 1001 483Q1026 450 1026 371Q1026 292 986 200Q946 109 881 49Q817 -10 751 -10Q731 -10 723 -4Q715 3 715 18ZM1296 435L1164 435L1164 52L1183 52Q1195 52 1201 44Q1208 37 1208 26Q1208 0 1183 0L1088 0Q1062 0 1062 26Q1062 52 1088 52L1108 52L1108 428L1088 428Q1075 428 1068 436Q1061 444 1061 454Q1061 465 1068 472Q1075 480 1088 480L1273 480Q1324 480 1350 458Q1376 437 1376 404Q1376 387 1368 373Q1360 360 1342 360Q1324 360 1309 376Q1295 393 1294 411Q1294 430 1296 435ZM1569 492Q1655 492 1702 436Q1750 380 1750 293Q1750 155 1760 106Q1770 58 1798 38Q1815 30 1815 16Q1815 -10 1791 -10Q1767 -10 1745 12Q1724 35 1711 68Q1694 35 1656 12Q1619 -10 1567 -10Q1491 -10 1443 37Q1396 85 1396 158Q1396 232 1446 284Q1496 336 1570 336Q1645 336 1695 287Q1695 357 1665 404Q1635 452 1573 452Q1511 452 1495 418Q1504 397 1504 383Q1504 369 1492 353Q1480 337 1462 337Q1445 337 1435 352Q1425 367 1425 387Q1425 429 1466 460Q1508 492 1569 492ZM1451 163Q1451 108 1488 71Q1525 34 1576 34Q1628 34 1663 69Q1698 105 1698 156L1698 165Q1698 219 1662 254Q1626 289 1573 289Q1521 289 1486 253Q1451 218 1451 163ZM2075 435L1943 435L1943 52L1962 52Q1974 52 1980 44Q1987 37 1987 26Q1987 0 1962 0L1867 0Q1841 0 1841 26Q1841 52 1867 52L1887 52L1887 428L1867 428Q1854 428 1847 436Q1840 444 1840 454Q1840 465 1847 472Q1854 480 1867 480L2052 480Q2103 480 2129 458Q2155 437 2155 404Q2155 387 2147 373Q2139 360 2121 360Q2103 360 2088 376Q2074 393 2073 411Q2073 430 2075 435ZM2240 53L2240 429L2214 429Q2202 429 2195 436Q2188 444 2188 454Q2188 480 2214 480L2264 480Q2295 480 2296 453L2296 52L2321 52Q2333 52 2339 44Q2346 36 2346 26Q2346 0 2321 0L2215 0Q2205 0 2197 7Q2190 15 2190 25Q2190 35 2197 43Q2205 52 2215 52L2240 53ZM2255 635Q2275 635 2288 622Q2302 609 2302 590Q2302 572 2288 559Q2275 546 2255 546Q2236 546 2222 559Q2209 572 2209 590Q2209 609 2222 622Q2235 635 2255 635ZM2562 492Q2648 492 2695 436Q2743 380 2743 293Q2743 155 2753 106Q2763 58 2791 38Q2808 30 2808 16Q2808 -10 2784 -10Q2760 -10 2738 12Q2717 35 2704 68Q2687 35 2649 12Q2612 -10 2560 -10Q2484 -10 2436 37Q2389 85 2389 158Q2389 232 2439 284Q2489 336 2563 336Q2638 336 2688 287Q2688 357 2658 404Q2628 452 2566 452Q2504 452 2488 418Q2497 397 2497 383Q2497 369 2485 353Q2473 337 2455 337Q2438 337 2428 352Q2418 367 2418 387Q2418 429 2459 460Q2501 492 2562 492ZM2444 163Q2444 108 2481 71Q2518 34 2569 34Q2621 34 2656 69Q2691 105 2691 156L2691 165Q2691 219 2655 254Q2619 289 2566 289Q2514 289 2479 253Q2444 218 2444 163Z" fill="#343333" style=""></path></g></g></g></svg>